<?xml version="1.0" encoding="UTF-8" standalone="no"?>
<svg
   xmlns:dc="http://purl.org/dc/elements/1.1/"
   xmlns:cc="http://creativecommons.org/ns#"
   xmlns:rdf="http://www.w3.org/1999/02/22-rdf-syntax-ns#"
   xmlns:svg="http://www.w3.org/2000/svg"
   xmlns="http://www.w3.org/2000/svg"
   xml:space="preserve"
   width="100px"
   viewBox="0 0 100 100"
   version="1.1"
   id="Layer_1"
   height="100px"
   enable-background="new 0 0 100 100"><metadata
     id="metadata20"><rdf:RDF><cc:Work
         rdf:about=""><dc:format>image/svg+xml</dc:format><dc:type
           rdf:resource="http://purl.org/dc/dcmitype/StillImage" /><dc:title></dc:title></cc:Work></rdf:RDF></metadata><defs
     id="defs18" /><g
     style="fill:#ffffff"
     id="Document"><rect
       style="fill:#ffffff"
       id="rect4"
       y="25.673"
       x="31.436"
       width="37.764"
       height="2.178" /><rect
       style="fill:#ffffff"
       id="rect6"
       y="33.661"
       x="31.436"
       width="37.764"
       height="2.179" /><rect
       style="fill:#ffffff"
       id="rect8"
       y="42.375"
       x="31.436"
       width="37.764"
       height="2.179" /><rect
       style="fill:#ffffff"
       id="rect10"
       y="50.363"
       x="31.436"
       width="37.764"
       height="2.179" /><rect
       style="fill:#ffffff"
       id="rect12"
       y="59.077"
       x="31.436"
       width="37.764"
       height="2.179" /><path
       style="fill:#ffffff"
       id="path14"
       d="M76.823,8.79H24.538c-3.604,0-6.536,2.932-6.536,6.536v69.349c0,3.604,2.932,6.536,6.536,6.536h42.119   c9.21,0,16.702-7.492,16.702-16.702V15.326C83.359,11.721,80.427,8.79,76.823,8.79z M22.358,84.675V15.326   c0-1.202,0.979-2.179,2.18-2.179h52.285c1.2,0,2.178,0.977,2.178,2.179v56.096H62.663v15.432H24.538   C23.337,86.854,22.358,85.876,22.358,84.675z M67.02,86.835V75.779h11.916C78.311,81.873,73.23,86.652,67.02,86.835z" /></g></svg>