<?xml version="1.0" encoding="iso-8859-1"?>
<!-- Generator: Adobe Illustrator 19.0.0, SVG Export Plug-In . SVG Version: 6.00 Build 0)  -->
<svg xmlns="http://www.w3.org/2000/svg" xmlns:xlink="http://www.w3.org/1999/xlink" version="1.1" id="Capa_1" x="0px" y="0px" viewBox="0 0 489.157 489.157" style="enable-background:new 0 0 489.157 489.157;" xml:space="preserve" width="512px" height="512px">
<g>
	<path d="M457.928,3.257l-165.4,106.1c-15.6,9.4-34.3,14.6-53.1,14.6h-139.4c-55.1,0-99.9,40.6-99.9,91.5   c0,38.4,25.3,70.8,61.4,84.6v168.3c0,11.4,9.4,20.8,20.8,20.8h90.5c10.4,0,18.7-6.2,20.8-15.6l16.1-71.8h19   c11.4,0,19.8-9.4,20.8-20.8c0-11.4-9.4-20.8-20.8-20.8h-9.6l11.9-53.1h8.3c18.7,0,37.5,5.2,53.1,14.6l165.4,105.1   c10.7,8,31.2-1.5,31.2-18.7v-388C489.129-0.043,468.229-3.743,457.928,3.257z M158.328,448.557h-55.1v-141.5h86.6L158.328,448.557z    M448.529,372.557l-134.2-85.3c-21.8-14.6-47.9-21.8-74.9-21.8h-139.4c-33.3,0-59.3-22.9-59.3-51s27-51,59.3-51l139.4,1   c27,0,53.1-8.3,74.9-21.8l134.2-85.3L448.529,372.557L448.529,372.557z" fill="#FFFFFF"/>
</g>
<g>
</g>
<g>
</g>
<g>
</g>
<g>
</g>
<g>
</g>
<g>
</g>
<g>
</g>
<g>
</g>
<g>
</g>
<g>
</g>
<g>
</g>
<g>
</g>
<g>
</g>
<g>
</g>
<g>
</g>
</svg>
