<?xml version="1.0" encoding="utf-8"?>
<!-- Generator: Adobe Illustrator 20.0.0, SVG Export Plug-In . SVG Version: 6.00 Build 0)  -->
<svg version="1.1" id="Capa_1" xmlns="http://www.w3.org/2000/svg" xmlns:xlink="http://www.w3.org/1999/xlink" x="0px" y="0px"
	 viewBox="0 0 512 512" style="enable-background:new 0 0 512 512;" xml:space="preserve">
<style type="text/css">
	.st0{fill:#FFFFFF;}
</style>
<g>
	<g>
		<path class="st0" d="M438.1,118.5c-1.1-32.8-1.7-65.6-1.4-98.4c0-1.5-0.2-2.7-0.6-4c0.6-7.1-3.6-14.7-12.7-14.4
			C308.1,4.7,192.6,0.2,77.2,0c-9.6,0-13.8,8.4-12.6,15.8c-0.4,1.3-0.6,2.7-0.6,4.3c1.7,137.8,6.5,335.7,6.6,473.5
			c0,3.1,0.9,5.6,2.3,7.6c0.8,5.8,5,11,12.6,10.8c49.9-1.2,99.8-2,149.7-4.5c44.4-2.2,99.8,0.7,142.3-13.8c15-5.1,28.5-12.7,40-23.7
			c21.1-20.1,28.3-47.1,30.1-75.5c1.7-27.3-1.5-55.9-2.1-81.1C443.8,248.4,440.3,183.4,438.1,118.5z M365.1,375.6
			c-8.1,0-16,6.4-12.3,16.1c7.3,19.6,10.6,44-0.6,62.7c-13.6,22.7-37.8,22.1-60.8,25c-14.1,1.8-29.1,0.8-43.3,1.2
			c-11,0.3-151,3.7-151,4.3c-0.3-132.6-4.7-325.4-6.5-458c106.6,0.5,213.2,4.1,319.8,1.8c-0.4,97.5,9.2,254.9,9.8,352.3
			c-16.5-5.2-33.6-7.4-51.3-6.2C367.4,374.9,366.2,375.2,365.1,375.6z M375.5,466.2c10.7-18.2,13.4-40.6,7.8-64.9
			c12.9,0.5,25.6,3,37.6,8.1c0.1,0.2,0.1,0.3,0.1,0.5C417.2,438.7,399,456.3,375.5,466.2z"/>
		<path class="st0" d="M351.9,243.8H156.7c-20.4,0-20.4,31.9,0,31.9h195.3C372.3,275.7,372.3,243.8,351.9,243.8z"/>
		<path class="st0" d="M351.9,313.9H156.7c-20.4,0-20.4,31.9,0,31.9h195.3C372.3,345.8,372.3,313.9,351.9,313.9z"/>
		<path class="st0" d="M351.9,180.1H148.8c-20.4,0-20.4,31.9,0,31.9h203.2C372.3,211.9,372.3,180.1,351.9,180.1z"/>
		<path class="st0" d="M147.2,138.6c36.3-1.5,166.8-1.6,203.2-1.6c20.3,0,20.4-31.9,0-31.9c-36.3,0-166.9,0.1-203.2,1.6
			C126.9,107.6,126.8,139.5,147.2,138.6z"/>
	</g>
</g>
</svg>
