<?xml version="1.0" encoding="UTF-8" standalone="no"?>
<svg
   xmlns:dc="http://purl.org/dc/elements/1.1/"
   xmlns:cc="http://creativecommons.org/ns#"
   xmlns:rdf="http://www.w3.org/1999/02/22-rdf-syntax-ns#"
   xmlns:svg="http://www.w3.org/2000/svg"
   xmlns="http://www.w3.org/2000/svg"
   xml:space="preserve"
   width="100px"
   viewBox="0 0 100 100"
   version="1.1"
   id="Layer_1"
   height="100px"
   enable-background="new 0 0 100 100"><metadata
     id="metadata20"><rdf:RDF><cc:Work
         rdf:about=""><dc:format>image/svg+xml</dc:format><dc:type
           rdf:resource="http://purl.org/dc/dcmitype/StillImage" /><dc:title></dc:title></cc:Work></rdf:RDF></metadata><defs
     id="defs18" /><path
     id="path4159"
     d="m 8.7895197,87.892465 c 0,-7.129082 3.1711883,-15.409913 7.5716313,-19.771581 1.299955,-1.288499 1.647446,-1.52973 3.476901,-2.413685 1.117929,-0.540161 4.179878,-1.882449 6.804331,-2.982863 5.02275,-2.106001 10.777534,-4.810238 10.777534,-5.064482 0,-0.08264 -0.144577,-0.281105 -0.321281,-0.44102 -0.98234,-0.889005 -2.734354,-3.945558 -3.527972,-6.154881 -0.272716,-0.7592 -0.701942,-1.52712 -1.149631,-2.056781 -1.823866,-2.157815 -3.322001,-5.01507 -3.899325,-7.436821 -0.28684,-1.203229 -0.338176,-1.830427 -0.282019,-3.445511 0.07612,-2.189149 0.382079,-3.176662 1.226771,-3.959498 l 0.457794,-0.424268 0.114339,-4.389816 c 0.06289,-2.414401 0.196872,-4.723017 0.297748,-5.13026 1.576551,-6.364678 5.549451,-10.419878 11.766089,-12.009826 3.762729,-0.962344 9.527467,-0.890444 13.38683,0.166964 4.277724,1.172034 7.191669,3.595481 8.106613,6.742044 0.118416,0.407243 0.504573,1.07364 0.858129,1.480883 1.47665,1.700884 1.719854,2.678252 1.862032,7.482992 l 0.113804,3.845845 0.467074,0.345322 c 0.654675,0.484024 1.089273,1.424845 1.308703,2.833095 0.570599,3.661976 -0.924896,8.064712 -4.034857,11.878605 -0.55087,0.675561 -0.922185,1.364894 -1.240849,2.303595 -0.917016,2.70129 -2.030213,4.735664 -3.916354,7.157151 -0.847776,1.088399 -1.023405,1.407394 -0.842721,1.530635 0.125539,0.08563 2.708732,1.386287 5.740428,2.890354 3.031695,1.504066 5.641751,2.844459 5.800123,2.97865 0.180235,0.152715 0.287949,0.476183 0.287949,0.864709 0,0.79943 -0.645263,1.374634 -1.40395,1.251517 -0.514493,-0.08349 -8.76036,-4.08537 -11.293989,-5.481191 l -1.426778,-0.786038 -1.001049,0.702195 c -4.453333,3.123837 -9.628519,3.037141 -14.570402,-0.244084 l -0.854469,-0.567336 -1.384611,0.778876 c -1.94712,1.095301 -5.700478,2.812888 -11.257161,5.151426 -6.347932,2.671535 -7.443528,3.24852 -8.90504,4.689758 -1.957899,1.930736 -3.655134,4.859501 -4.907151,8.467828 -0.672527,1.938227 -1.358159,5.157264 -1.437381,6.748482 -0.04939,0.99203 -0.02572,1.07607 0.358475,1.272779 0.572349,0.293044 71.830972,0.317146 72.473235,0.02451 0.497673,-0.226754 0.507203,-0.380812 0.17024,-2.751565 -0.463988,-3.264453 -1.253559,-6.042554 -2.490634,-8.763283 -0.786161,-1.729024 -0.791036,-2.143066 -0.03151,-2.675063 0.911781,-0.638635 1.621493,-0.169623 2.440021,1.612489 1.736991,3.781801 2.963656,9.342572 2.963656,13.434975 l 0,1.636997 -39.325661,0 -39.3256603,0 0,-1.322825 z M 50.912403,59.606262 c 4.151031,-1.403602 7.9093,-5.90767 9.694246,-11.61799 0.428245,-1.370024 0.614017,-1.717251 1.3157,-2.459178 1.772465,-1.87412 3.232392,-4.688323 3.632217,-7.001582 0.100846,-0.583463 0.16109,-1.726406 0.133875,-2.539873 -0.0446,-1.33317 -0.08194,-1.483902 -0.378568,-1.528424 -1.521648,-0.22839 -1.512509,-0.196767 -1.603475,-5.548755 -0.08858,-5.211803 -0.172189,-5.597063 -1.488503,-6.859133 -0.654287,-0.627323 -0.844037,-0.93544 -0.960719,-1.560007 -0.485647,-2.599539 -2.937136,-4.743639 -6.451356,-5.642425 -2.192516,-0.560751 -3.915006,-0.707164 -7.332301,-0.623252 -2.788923,0.06848 -3.444763,0.137179 -4.849418,0.507961 -4.929771,1.301293 -8.108871,4.36988 -9.488142,9.158309 -0.309205,1.073475 -0.37492,1.88715 -0.504971,6.252615 -0.09581,3.216094 -0.21846,5.151996 -0.34149,5.390105 -0.113482,0.219632 -0.449441,0.440886 -0.821631,0.541105 l -0.62965,0.169548 0,2.01261 c 0,2.330565 0.309777,3.706957 1.259569,5.596479 0.773753,1.539307 1.406054,2.454963 2.469412,3.576042 0.734743,0.774625 0.94143,1.142114 1.356172,2.411277 0.982645,3.007008 2.318651,5.170067 4.38541,7.100192 1.469816,1.372646 3.581816,2.500939 5.420534,2.895808 1.566025,0.336309 3.798905,0.236607 5.183089,-0.231432 z m 16.135496,20.818451 c -0.151339,-0.182352 -0.08108,-1.031387 0.316593,-3.825613 0.281105,-1.975186 0.586219,-3.82819 0.678034,-4.117787 0.351089,-1.107395 2.103419,-2.032677 2.397616,-1.266011 0.05577,0.145327 -0.08091,1.552166 -0.303735,3.126308 -0.222822,1.574142 -0.37194,2.862077 -0.331376,2.862077 0.04057,0 1.209937,-0.481287 2.598602,-1.069526 1.388666,-0.58824 2.659729,-1.069527 2.824588,-1.069527 0.384619,0 0.694644,0.311359 0.694644,0.697634 0,0.481828 -0.625272,1.576819 -1.064896,1.864872 -0.669846,0.438899 -6.879184,3.03194 -7.260335,3.03194 -0.195374,0 -0.442756,-0.105466 -0.549735,-0.234367 z m 8.693976,-6.53963 c -2.312454,-1.665303 -4.960068,-3.841143 -5.090072,-4.183074 -0.08696,-0.228725 -0.09037,-0.555044 -0.008,-0.771548 0.07846,-0.206352 3.260635,-4.445379 7.071512,-9.420058 4.553782,-5.944462 7.104564,-9.13968 7.441429,-9.321455 0.379311,-0.204678 0.618849,-0.23617 0.921413,-0.121135 0.224869,0.0855 1.618128,1.084251 3.096131,2.219458 2.937826,2.25645 3.193181,2.597511 2.61408,3.491441 -0.564535,0.871443 -13.770247,18.056813 -14.092809,18.339803 -0.488662,0.428709 -1.142697,0.350561 -1.953633,-0.233432 z m 7.064889,-10.617729 c 3.272729,-4.271295 5.947279,-7.825413 5.943445,-7.898041 -0.01345,-0.254701 -2.802338,-2.242569 -2.935351,-2.092263 -0.361609,0.408627 -12.031046,15.6899 -12.031046,15.754804 0,0.185333 2.864337,2.244982 2.962468,2.130214 0.06054,-0.0708 2.787753,-3.623421 6.060484,-7.894714 z"
     style="fill:#ffffff" /></svg>