<?xml version="1.0" encoding="utf-8"?>
<!-- Generator: Adobe Illustrator 20.0.0, SVG Export Plug-In . SVG Version: 6.00 Build 0)  -->
<svg version="1.1" id="Layer_1" xmlns="http://www.w3.org/2000/svg" xmlns:xlink="http://www.w3.org/1999/xlink" x="0px" y="0px"
	 viewBox="0 0 512 512" style="enable-background:new 0 0 512 512;" xml:space="preserve">
<style type="text/css">
	.st0{fill:#FFFFFF;}
</style>
<g>
	<g>
		<path class="st0" d="M35.1,476.8c-2-2-3.1-4.8-3.1-7.6c0.1-5.4,1.6-53.2,26.8-78.5c11.7-11.7,36.1-24.3,71.9-42.2
			c38.3-19.1,59.5-30.6,69.3-39.8l21.6-20.4l-18.8-23c-29.5-36.3-46.5-76.4-46.5-109.9c0-25.9,0-55.2,12.3-79.5
			c14.7-29,44-43.7,87.3-43.7c43.3,0,72.6,14.7,87.3,43.7c12.3,24.3,12.3,53.6,12.3,79.5c0,33.6-16.9,73.6-46.5,109.9l-18.8,23
			l21.6,20.4c5.8,5.5,15.9,11.9,31.2,20.2l23.6-23.6c-14.5-7.6-28.1-15.3-32.9-19.8c34-41.7,53.7-88.9,53.7-130.1
			c0-28,0-62.9-15.7-93.9C357.7,33.4,326.2,0,256,0c-70.2,0-101.7,33.4-115.9,61.3c-15.7,31.1-15.7,65.9-15.7,93.9
			c0,41.3,19.7,88.4,53.7,130.1c-8.1,7.7-41.6,24.4-61.7,34.4c-39.9,19.9-65.1,33.1-80.3,48.2C2.7,401.5,0.2,457.7,0,468.7
			c-0.2,11.4,4.2,22.4,12.3,30.6c8,8.1,19,12.7,30.4,12.7h181.2v-32H42.7C39.8,480,37.1,478.8,35.1,476.8z M484.9,379l-23,23
			c13.5,21.3,17.8,50.8,18.1,67.2c0,2.8-1.1,5.6-3,7.6c-2,2.1-4.7,3.2-7.6,3.2h-85.4l-32,32h117.4c11.4,0,22.4-4.6,30.4-12.7
			c8-8.2,12.4-19.2,12.3-30.6C511.8,458.9,509.6,412.6,484.9,379z M502.6,333.3c12.5-12.5,12.5-32.8,0-45.3l-22.6-22.6
			c-6.3-6.3-14.4-9.4-22.6-9.4c-8.2,0-16.4,3.1-22.6,9.4L297.3,402.8c-6.2,6.3-25.4,30.4-25.4,38.6l-16,70.6l70.6-16
			c0,0,32.4-19.1,38.6-25.4L502.6,333.3z M338.1,470.1l-41.5-41.5c4.3-5.8,9-11.7,11.9-14.6L412,310.6l45.3,45.3L353.9,459.3
			C352.1,461,345.8,465.2,338.1,470.1z"/>
	</g>
</g>
</svg>
