<?xml version="1.0" encoding="utf-8"?>
<!-- Generator: Adobe Illustrator 20.0.0, SVG Export Plug-In . SVG Version: 6.00 Build 0)  -->
<svg version="1.1" id="Слой_1" xmlns="http://www.w3.org/2000/svg" xmlns:xlink="http://www.w3.org/1999/xlink" x="0px" y="0px"
	 viewBox="0 0 512 512" style="enable-background:new 0 0 512 512;" xml:space="preserve">
<style type="text/css">
	.st0{fill:#FFFFFF;}
</style>
<path class="st0" d="M490.7,213.3H309.3c-6.4,0-10.7-4.3-10.7-10.7V21.3c0-12.8-8.5-21.3-21.3-21.3h-42.7
	c-12.8,0-21.3,8.5-21.3,21.3v181.3c0,6.4-4.3,10.7-10.7,10.7H21.3C8.5,213.3,0,221.9,0,234.7v42.7c0,12.8,8.5,21.3,21.3,21.3h181.3
	c6.4,0,10.7,4.3,10.7,10.7v181.3c0,12.8,8.5,21.3,21.3,21.3h42.7c12.8,0,21.3-8.5,21.3-21.3V309.3c0-6.4,4.3-10.7,10.7-10.7h181.3
	c12.8,0,21.3-8.5,21.3-21.3v-42.7C512,221.9,503.5,213.3,490.7,213.3z"/>
</svg>
