<?xml version="1.0" encoding="utf-8"?>
<!-- Generator: Adobe Illustrator 20.0.0, SVG Export Plug-In . SVG Version: 6.00 Build 0)  -->
<svg version="1.1" id="Слой_1" xmlns="http://www.w3.org/2000/svg" xmlns:xlink="http://www.w3.org/1999/xlink" x="0px" y="0px"
	 viewBox="0 0 1000 1000" style="enable-background:new 0 0 1000 1000;" xml:space="preserve">
<style type="text/css">
	.st0{fill:#FFFFFF;}
</style>
<g>
	<path class="st0" d="M983.8,851.3c-6.2-184.9-110.9-339-258.9-400.6c49.3-43.1,67.8-86.3,67.8-160.3
		c0-135.6-92.5-252.7-203.4-252.7c-110.9,0-203.3,111-203.3,252.7c0,80.1,18.5,117.1,67.8,160.3c-18.5,12.3-43.1,24.7-61.6,37
		c0-12.3,6.2-24.7,6.2-37c0-86.3-61.6-160.3-129.4-160.3c-80.1,0-135.6,74-135.6,160.3c0,49.3,12.3,74,43.1,104.8
		C77.8,592.5,10,691.1,10,808.2v6.2v37c0,12.3,12.3,24.7,24.7,24.7h166.4v43.1c0,24.7,18.5,43.1,43.1,43.1h702.6
		c24.7,0,43.1-18.5,43.1-43.1v-55.5C990,857.5,983.8,857.5,983.8,851.3z M595.5,142.5c67.8,0,110.9,55.5,110.9,147.9
		c0,92.5-37,129.4-110.9,129.4c-67.8,0-110.9-37-110.9-129.4S521.6,142.5,595.5,142.5z M262.7,376.7c43.1,0,49.3,12.3,49.3,74
		c0,61.6-6.2,61.6-49.3,61.6s-49.3,0-49.3-61.6C213.4,389.1,219.6,376.7,262.7,376.7z M201.1,814.3c-61.6,0-110.9,0-110.9,0
		c0-129.4,61.6-197.2,172.6-197.2h6.2C231.9,672.6,213.4,740.4,201.1,814.3z M293.5,876c0-24.7,0-43.1,6.2-67.8
		C312,721.9,349,647.9,404.5,592.5c6.2-6.2,6.2-6.2,6.2-6.2l0,0c49.3-43.1,110.9-67.8,178.7-67.8c166.4,0,302,154.1,302,351.3H293.5
		V876z"/>
</g>
</svg>
