<?xml version="1.0" encoding="UTF-8" standalone="no"?>
<svg
   xmlns:dc="http://purl.org/dc/elements/1.1/"
   xmlns:cc="http://creativecommons.org/ns#"
   xmlns:rdf="http://www.w3.org/1999/02/22-rdf-syntax-ns#"
   xmlns:svg="http://www.w3.org/2000/svg"
   xmlns="http://www.w3.org/2000/svg"
   xml:space="preserve"
   width="512px"
   viewBox="0 0 512 512"
   version="1.1"
   style="enable-background:new 0 0 512 512;"
   id="Layer_1"
   height="512px"><metadata
     id="metadata19"><rdf:RDF><cc:Work
         rdf:about=""><dc:format>image/svg+xml</dc:format><dc:type
           rdf:resource="http://purl.org/dc/dcmitype/StillImage" /><dc:title></dc:title></cc:Work></rdf:RDF></metadata><defs
     id="defs17" /><path
     id="path4158"
     d="m 173.42778,108.96375 c -31.09079,-0.57185 -61.91274,19.6695 -71.61098,49.05544 -6.342009,19.21648 -2.814985,47.96775 7.8618,64.10144 5.0088,7.56883 8.62482,14.10423 8.0368,14.52098 -0.58801,0.41676 -7.93123,4.68393 -16.31816,9.48396 -22.744912,13.01741 -44.651261,39.08119 -50.892987,60.55196 -9.01016,30.99387 0.268124,52.52175 26.656945,61.85778 7.239111,2.56113 18.714807,4.71993 25.501472,4.79919 10.19386,0.11933 12.3379,-0.9981 12.3379,-6.43482 0,-5.54789 -2.19548,-6.58395 -13.98475,-6.58739 -21.273001,-0.008 -36.389193,-8.97041 -40.03815,-23.74019 -8.310096,-33.6366 29.040569,-79.36269 74.93159,-91.73215 l 12.68118,-3.4171 -11.03209,-8.14224 c -19.39887,-14.31205 -26.34677,-29.33445 -25.11331,-54.30337 0.87546,-17.72158 2.76638,-23.97093 10.21091,-33.73122 21.63169,-28.36061 61.96355,-32.34501 88.8109,-8.77272 11.0344,9.68833 20.75737,9.27542 16.92169,-0.72021 -3.05192,-7.95321 -25.85037,-21.75746 -41.68051,-25.23672 -4.39175,-0.96525 -8.8387,-1.47092 -13.28025,-1.55262 z m 169.84526,0.0831 c -14.76625,-0.32952 -29.99443,3.82997 -43.89502,13.02895 -14.07123,9.3119 -18.97193,17.54543 -12.73503,21.40004 2.43654,1.50587 8.3624,-1.2839 14.87548,-7.00246 21.60679,-18.97102 52.5665,-20.31961 76.04221,-3.3139 16.16331,11.70864 23.72054,27.63836 23.69757,49.96861 -0.0197,20.57459 -8.77306,37.56745 -25.83129,50.15259 l -11.03208,8.14225 12.68118,3.41709 c 45.89102,12.36947 83.24169,58.09556 74.93159,91.73215 -3.64896,14.76978 -18.76516,23.73329 -40.03815,23.74019 -12.09416,0.004 -13.98476,0.95787 -13.98476,7.04734 0,6.57406 1.20878,6.91511 18.23201,5.15818 22.73316,-2.3463 37.60214,-10.70953 45.28833,-25.47454 15.02965,-28.8717 -9.09147,-77.29849 -50.35901,-101.10392 -8.14399,-4.69792 -15.28814,-8.88098 -15.87616,-9.29774 -0.588,-0.41674 3.055,-6.99011 8.09513,-14.60624 11.21561,-16.94795 14.49319,-47.89831 6.97331,-65.847 -12.36912,-29.52296 -38.8752,-46.51251 -67.06531,-47.14159 z m -88.42498,47.40409 c -62.63015,0 -94.32245,75.18049 -50.69556,120.26031 l 9.84519,10.17502 -21.27217,10.47117 c -67.35945,33.16094 -86.47243,114.57254 -29.09356,123.9242 6.73339,1.09742 14.46505,2.53822 17.17972,3.20396 2.71466,0.6658 40.47161,0.82871 83.90624,0.36122 82.15781,-0.88428 91.52155,-2.28925 106.06915,-15.91654 26.87708,-25.17677 -2.6455,-86.38034 -53.81873,-111.57284 l -21.26993,-10.47117 9.64327,-10.17502 c 14.26895,-15.05239 20.25129,-29.21988 20.25129,-47.95603 0,-41.2691 -30.36533,-72.30428 -70.74491,-72.30428 z m -0.0942,13.03792 c 10.06301,-0.0103 20.44612,2.60508 30.2468,8.34868 19.70902,11.55024 28.57888,29.46106 26.79608,54.10816 -1.61297,22.29901 -9.71407,35.06872 -30.63498,48.28587 -8.13182,5.13742 -14.78902,10.27549 -14.79247,11.41799 -0.003,1.14248 6.8395,3.80103 15.2053,5.90757 35.99626,9.06395 64.97316,30.13662 78.34645,56.97332 13.09449,26.27721 11.29932,41.74692 -5.93448,51.11287 -8.79259,4.77847 -22.06348,5.68579 -90.91321,6.22392 -100.77226,0.78761 -115.69949,-1.8846 -120.00453,-21.48531 -7.82953,-35.64762 32.3977,-79.5673 85.01238,-92.81584 8.38721,-2.11191 15.22221,-4.77405 15.18959,-5.91653 -0.0325,-1.1425 -7.39821,-6.87574 -16.36976,-12.74176 -19.61658,-12.82627 -29.63654,-30.44084 -29.63654,-52.09785 0,-33.64201 27.30034,-57.2916 57.48937,-57.32109 z"
     style="fill:#38b16e;fill-opacity:1" /></svg>